<?xml version="1.0" standalone="no"?>
<!DOCTYPE svg PUBLIC "-//W3C//DTD SVG 20010904//EN"
 "http://www.w3.org/TR/2001/REC-SVG-20010904/DTD/svg10.dtd">
<svg version="1.0" xmlns="http://www.w3.org/2000/svg"
 width="512.000000pt" height="512.000000pt" viewBox="0 0 512.000000 512.000000"
 preserveAspectRatio="xMidYMid meet">
<metadata>
Created by potrace 1.11, written by Peter Selinger 2001-2013
</metadata>
<g transform="translate(0.000000,512.000000) scale(0.100000,-0.100000)"
fill="#000000" stroke="none">
<path d="M2515 5100 c-186 -33 -326 -80 -529 -178 -307 -148 -439 -288 -510
-535 -23 -79 -59 -265 -72 -372 -10 -81 -11 -258 -1 -301 10 -44 10 -45 -25
-74 -57 -47 -82 -117 -82 -230 0 -159 55 -303 146 -385 58 -52 110 -65 159
-41 18 9 33 16 35 16 1 0 10 -24 20 -52 44 -136 120 -275 211 -391 36 -45 51
-72 46 -81 -4 -8 -41 -50 -81 -94 -66 -72 -80 -83 -155 -112 -117 -47 -292
-130 -378 -181 -193 -114 -269 -171 -405 -304 -227 -223 -339 -451 -399 -815
-3 -19 -10 -57 -15 -85 -5 -27 -12 -72 -15 -98 -4 -27 -8 -57 -10 -67 -2 -11
-7 -50 -11 -87 -4 -37 -8 -81 -10 -98 -7 -73 -16 -241 -18 -368 -3 -110 0
-141 11 -153 22 -21 4244 -21 4266 0 11 11 13 44 12 153 -3 142 -13 336 -19
369 -2 10 -7 53 -11 94 -4 41 -9 82 -10 92 -2 9 -6 38 -10 65 -6 43 -39 229
-49 278 -37 173 -52 221 -100 329 -130 292 -412 560 -790 751 -118 59 -172 84
-306 139 -55 22 -74 38 -123 96 -32 38 -60 75 -62 82 -3 7 13 36 36 63 95 113
179 262 229 405 13 36 24 66 25 67 0 1 19 -4 42 -12 54 -19 100 -4 153 49 58
58 96 135 127 261 3 11 6 61 8 110 3 68 -1 104 -15 145 -22 66 -77 120 -123
120 -20 0 -28 4 -24 13 24 63 41 198 41 332 1 158 -11 233 -59 383 -13 41 -33
120 -45 176 -35 174 -73 247 -149 286 -48 24 -167 22 -252 -5 -16 -5 -19 -1
-19 24 0 17 1 32 1 34 1 1 -8 21 -19 43 -36 70 -122 122 -248 149 -71 15 -320
12 -419 -5z"/>
</g>
</svg>
